<mxfile host="app.diagrams.net" agent="Mozilla/5.0 (Windows NT 10.0; Win64; x64) AppleWebKit/537.36 (KHTML, like Gecko) Chrome/121.0.0.0 Safari/537.36" version="24.7.14">
  <diagram name="PÃ¡gina-1" id="gewDGRdOrv_RYNmbjjjR">
    <mxGraphModel dx="1194" dy="750" grid="1" gridSize="10" guides="1" tooltips="1" connect="1" arrows="1" fold="1" page="1" pageScale="1" pageWidth="827" pageHeight="1169" math="0" shadow="0">
      <root>
        <mxCell id="0" />
        <mxCell id="1" parent="0" />
        <mxCell id="WabDTIFdPWh9GdyCZmCO-2" value="ALUNO" style="whiteSpace=wrap;html=1;align=center;" vertex="1" parent="1">
          <mxGeometry x="364" y="240" width="100" height="40" as="geometry" />
        </mxCell>
        <mxCell id="WabDTIFdPWh9GdyCZmCO-3" value="NumMec" style="ellipse;whiteSpace=wrap;html=1;align=center;fontStyle=4;" vertex="1" parent="1">
          <mxGeometry x="184" y="350" width="100" height="40" as="geometry" />
        </mxCell>
        <mxCell id="WabDTIFdPWh9GdyCZmCO-4" value="Nome" style="ellipse;whiteSpace=wrap;html=1;align=center;" vertex="1" parent="1">
          <mxGeometry x="304" y="350" width="100" height="40" as="geometry" />
        </mxCell>
        <mxCell id="WabDTIFdPWh9GdyCZmCO-5" value="Sexo" style="ellipse;whiteSpace=wrap;html=1;align=center;" vertex="1" parent="1">
          <mxGeometry x="424" y="350" width="100" height="40" as="geometry" />
        </mxCell>
        <mxCell id="WabDTIFdPWh9GdyCZmCO-6" value="DataNasc" style="ellipse;whiteSpace=wrap;html=1;align=center;" vertex="1" parent="1">
          <mxGeometry x="544" y="350" width="100" height="40" as="geometry" />
        </mxCell>
        <mxCell id="WabDTIFdPWh9GdyCZmCO-7" value="" style="endArrow=none;html=1;rounded=0;exitX=0;exitY=1;exitDx=0;exitDy=0;entryX=0.5;entryY=0;entryDx=0;entryDy=0;" edge="1" parent="1" source="WabDTIFdPWh9GdyCZmCO-2" target="WabDTIFdPWh9GdyCZmCO-3">
          <mxGeometry relative="1" as="geometry">
            <mxPoint x="330" y="560" as="sourcePoint" />
            <mxPoint x="490" y="560" as="targetPoint" />
          </mxGeometry>
        </mxCell>
        <mxCell id="WabDTIFdPWh9GdyCZmCO-8" value="" style="endArrow=none;html=1;rounded=0;exitX=0.25;exitY=1;exitDx=0;exitDy=0;entryX=0.5;entryY=0;entryDx=0;entryDy=0;" edge="1" parent="1" source="WabDTIFdPWh9GdyCZmCO-2" target="WabDTIFdPWh9GdyCZmCO-4">
          <mxGeometry relative="1" as="geometry">
            <mxPoint x="334" y="430" as="sourcePoint" />
            <mxPoint x="494" y="430" as="targetPoint" />
          </mxGeometry>
        </mxCell>
        <mxCell id="WabDTIFdPWh9GdyCZmCO-9" value="" style="endArrow=none;html=1;rounded=0;exitX=0.75;exitY=1;exitDx=0;exitDy=0;entryX=0.5;entryY=0;entryDx=0;entryDy=0;" edge="1" parent="1" source="WabDTIFdPWh9GdyCZmCO-2" target="WabDTIFdPWh9GdyCZmCO-5">
          <mxGeometry relative="1" as="geometry">
            <mxPoint x="330" y="560" as="sourcePoint" />
            <mxPoint x="490" y="560" as="targetPoint" />
          </mxGeometry>
        </mxCell>
        <mxCell id="WabDTIFdPWh9GdyCZmCO-10" value="" style="endArrow=none;html=1;rounded=0;exitX=1;exitY=1;exitDx=0;exitDy=0;entryX=0.5;entryY=0;entryDx=0;entryDy=0;" edge="1" parent="1" source="WabDTIFdPWh9GdyCZmCO-2" target="WabDTIFdPWh9GdyCZmCO-6">
          <mxGeometry relative="1" as="geometry">
            <mxPoint x="330" y="560" as="sourcePoint" />
            <mxPoint x="490" y="560" as="targetPoint" />
          </mxGeometry>
        </mxCell>
      </root>
    </mxGraphModel>
  </diagram>
</mxfile>
